<svg width="262" height="262" xmlns="http://www.w3.org/2000/svg" version="1.1" xml:space="preserve">
 <defs>
  <radialGradient cx="201.7737" cy="461.3592" gradientUnits="userSpaceOnUse" id="XMLID_2_" r="261.1088" gradientTransform="matrix(1,0,0,1,-125,-202)">
   <stop offset="0" stop-color="#FFD776"/>
   <stop offset="0.2463" stop-color="#F3A554"/>
   <stop offset="0.3793" stop-color="#F15C3C"/>
   <stop offset="0.5394" stop-color="#D94867"/>
   <stop offset="0.6995" stop-color="#C32F87"/>
   <stop offset="0.9122" stop-color="#7D63A7"/>
   <stop offset="0.9852" stop-color="#5C6CB3"/>
  </radialGradient>
  <radialGradient cx="228.1541" cy="398.6691" gradientUnits="userSpaceOnUse" id="XMLID_3_" r="134.0828" gradientTransform="matrix(1,0,0,1,-125,-202)">
   <stop offset="0" stop-color="#FFD776"/>
   <stop offset="0.2463" stop-color="#F3A554"/>
   <stop offset="0.3793" stop-color="#F15C3C"/>
   <stop offset="0.607" stop-color="#D94867"/>
   <stop offset="0.8346" stop-color="#C32F87"/>
   <stop offset="0.9577" stop-color="#7D63A7"/>
   <stop offset="1" stop-color="#5C6CB3"/>
  </radialGradient>
  <radialGradient cx="318.6223" cy="278.8304" gradientUnits="userSpaceOnUse" id="XMLID_4_" r="31.333" gradientTransform="matrix(1,0,0,1,-125,-202)">
   <stop offset="0" stop-color="#5F6DB3"/>
   <stop offset="1" stop-color="#5C6CB3"/>
  </radialGradient>
 </defs>
 <g>
  <title>Layer 1</title>
  <g id="XMLID_138_">
   <path class="st0" d="m253.7,45.7c-3.3,-8.5 -7.7,-15.7 -14.9,-22.9c-7.2,-7.2 -14.4,-11.6 -22.9,-14.9c-8.2,-3.2 -17.7,-5.4 -31.4,-6c-13.8,-0.6 -18.2,-0.8 -53.4,-0.8s-39.6,0.1 -53.4,0.8c-13.8,0.6 -23.2,2.8 -31.4,6c-8.5,3.3 -15.7,7.7 -22.9,14.9c-7.2,7.2 -11.6,14.4 -14.9,22.9c-3.2,8.2 -5.4,17.7 -6,31.4c-0.6,13.8 -0.8,18.2 -0.8,53.4c0,35.2 0.1,39.6 0.8,53.4c0.6,13.8 2.8,23.2 6,31.4c3.3,8.5 7.7,15.7 14.9,22.9c7.2,7.2 14.4,11.6 22.9,14.9c8.2,3.2 17.7,5.4 31.4,6c13.8,0.6 18.2,0.8 53.4,0.8s39.6,-0.1 53.4,-0.8c13.8,-0.6 23.2,-2.8 31.4,-6c8.5,-3.3 15.7,-7.7 22.9,-14.9c7.2,-7.2 11.6,-14.4 14.9,-22.9c3.2,-8.2 5.4,-17.7 6,-31.4c0.6,-13.8 0.8,-18.2 0.8,-53.4s-0.1,-39.6 -0.8,-53.4c-0.6,-13.8 -2.8,-23.2 -6,-31.4zm-17.3,137.1c-0.6,12.6 -2.7,19.5 -4.5,24c-2.3,6 -5.2,10.4 -9.7,14.9c-4.5,4.5 -8.8,7.3 -14.9,9.7c-4.6,1.8 -11.4,3.9 -24,4.5c-13.7,0.6 -17.7,0.8 -52.3,0.8s-38.7,-0.1 -52.3,-0.8c-12.6,-0.6 -19.5,-2.7 -24,-4.5c-6,-2.3 -10.4,-5.2 -14.9,-9.7c-4.5,-4.5 -7.3,-8.8 -9.7,-14.9c-1.8,-4.6 -3.9,-11.4 -4.5,-24c-0.6,-13.7 -0.8,-17.8 -0.8,-52.3s0.1,-38.7 0.8,-52.3c0.6,-12.6 2.7,-19.5 4.5,-24c2.3,-6 5.2,-10.4 9.7,-14.9c4.5,-4.5 8.8,-7.3 14.9,-9.7c4.6,-1.8 11.4,-3.9 24,-4.5c13.7,-0.6 17.8,-0.8 52.3,-0.8s38.7,0.1 52.3,0.8c12.6,0.6 19.5,2.7 24,4.5c6,2.3 10.4,5.2 14.9,9.7c4.5,4.5 7.3,8.8 9.7,14.9c1.8,4.6 3.9,11.4 4.5,24c0.6,13.7 0.8,17.8 0.8,52.3s-0.2,38.7 -0.8,52.3z" id="XMLID_142_" fill="url(#XMLID_2_)"/>
   <path class="st1" d="m131,64c-36.7,0 -66.5,29.8 -66.5,66.5c0,36.7 29.8,66.5 66.5,66.5s66.5,-29.8 66.5,-66.5c0,-36.7 -29.8,-66.5 -66.5,-66.5zm0,109.7c-23.8,0 -43.2,-19.3 -43.2,-43.2c0,-23.8 19.3,-43.2 43.2,-43.2s43.2,19.3 43.2,43.2c0,23.8 -19.4,43.2 -43.2,43.2z" id="XMLID_145_" fill="url(#XMLID_3_)"/>
   <circle class="st2" cx="200.1" cy="61.4" id="XMLID_143_" r="15.5" fill="url(#XMLID_4_)"/>
  </g>
 </g>
</svg>